<?xml version="1.0" encoding="utf-8"?>
<!-- Generator: Adobe Illustrator 16.0.0, SVG Export Plug-In . SVG Version: 6.00 Build 0)  -->
<!DOCTYPE svg PUBLIC "-//W3C//DTD SVG 1.1//EN" "http://www.w3.org/Graphics/SVG/1.1/DTD/svg11.dtd">
<svg version="1.1" id="Layer_1" xmlns="http://www.w3.org/2000/svg" xmlns:xlink="http://www.w3.org/1999/xlink" x="0px" y="0px"
	 width="512px" height="512px" viewBox="0 0 512 512" enable-background="new 0 0 512 512" xml:space="preserve">
<path d="M492.438,397.75l-2.375-7.156c-5.625-16.719-24.063-34.156-41-38.75l-62.688-17.125c-17-4.625-41.25,1.594-53.688,14.031
	L310,371.438c-82.453-22.281-147.109-86.938-169.359-169.375l22.688-22.688c12.438-12.438,18.656-36.656,14.031-53.656L160.266,63
	c-4.625-16.969-22.094-35.406-38.781-40.969l-7.156-2.406c-16.719-5.563-40.563,0.063-53,12.5L27.391,66.094
	c-6.063,6.031-9.938,23.281-9.938,23.344C16.266,197.188,58.516,301,134.734,377.219c76.031,76.031,179.453,118.219,286.891,117.313
	c0.563,0,18.313-3.813,24.375-9.844l33.938-33.938C492.375,438.313,498,414.469,492.438,397.75z"/>
</svg>
